<svg xmlns="http://www.w3.org/2000/svg" width="256" height="256"><path fill-opacity=".016" d="M0 128.004v128.004l128.25-.254 128.25-.254.254-127.75L257.008 0H0v128.004m.485.496c0 70.4.119 99.053.265 63.672.146-35.38.146-92.98 0-128C.604 29.153.485 58.1.485 128.5" fill="#1976D2" fill-rule="evenodd"/><path fill-opacity=".247" d="M60.5 26.099C28.6 40.346 1.938 52.763 1.25 53.692.277 55.007 0 71.301 0 127.135v71.753l2.25 2.467C4.609 203.942 118.408 255 121.813 255c.991 0 9.355-3.375 18.588-7.5s17.191-7.5 17.684-7.5c.494 0 3.039 1.644 5.656 3.654 5.549 4.259 13.308 8.007 20.598 9.948 6.868 1.829 20.836 1.764 28.109-.13 17.413-4.536 32.294-17.645 39.128-34.472 5.137-12.647 5.444-18.261 5.181-94.75l-.243-70.75-.34 69.5c-.305 62.367-.483 68.833-1.733 63-1.652-7.715-3.68-12.638-8.143-19.769l-3.298-5.27v-52.87c0-48.918-.131-53.02-1.75-54.883C238.887 50.489 124.729-.027 121.23.098 119.729.151 92.4 11.852 60.5 26.099M.474 127c0 39.875.124 56.188.276 36.25.151-19.937.151-52.562 0-72.5C.598 70.813.474 87.125.474 127m205.566 66.494-14.61 14.493-6.436-6.493c-6.914-6.976-10.206-8.128-13.339-4.665-3.419 3.777-2.165 6.295 8.205 16.484 6.625 6.508 10.605 9.687 12.13 9.687 2.746 0 35.196-31.621 37.054-36.107 1.695-4.091-.831-7.893-5.242-7.893-2.719 0-5.159 1.991-17.762 14.494" fill="#1976D2" fill-rule="evenodd"/><path fill-opacity=".069" d="M114.5 50.098c-33 14.772-60.565 26.868-61.256 26.88-.691.012-12.377-4.928-25.969-10.978C13.682 59.95 2.21 55 1.781 55 1.351 55 1 87.795 1 127.878c0 57.089.271 73.099 1.25 73.901.688.563 27.745 12.793 60.128 27.176 51.207 22.745 59.219 26.028 61.5 25.199 1.442-.524 9.726-4.132 18.409-8.018l15.788-7.066 4.633 3.537c17.969 13.716 40.511 16.04 61.038 6.292 4.79-2.275 8.968-5.417 14.366-10.804 8.247-8.228 11.474-13.628 14.916-24.96 1.892-6.231 2.149-8.895 1.73-17.975-.564-12.242-3.025-20.204-9.049-29.279L242 160.293V107.54c0-41.806-.259-52.649-1.25-52.249-.687.278-27.69 12.27-60.005 26.65l-58.755 26.145L95.521 96.35c-14.558-6.455-26.368-11.83-26.245-11.944.123-.115 26.774-11.998 59.224-26.407 32.45-14.409 59.667-26.567 60.482-27.018 1.07-.592-.703-1.816-6.375-4.401-4.321-1.969-7.913-3.526-7.982-3.46-.069.067-27.125 12.207-60.125 26.978m92.318 142.616-14.832 14.714-6.243-6.11c-3.434-3.361-7.239-6.407-8.455-6.77-5.101-1.52-9.446 4.33-6.877 9.258.772 1.482 5.216 6.407 9.874 10.944 6.639 6.466 9.094 8.25 11.353 8.25 2.403 0 5.836-2.957 20.622-17.76 18.967-18.988 20.129-20.851 15.74-25.24-3.804-3.804-5.647-2.698-21.182 12.714" fill="#1976D2" fill-rule="evenodd"/><path fill-opacity=".153" d="M1 127.484c0 61.281.218 72.591 1.424 73.797 1.758 1.758 117.389 53.239 118.064 52.564.268-.267.515-33.079.549-72.916l.063-72.429-55.3-24.685C35.385 70.238 8.363 58.225 5.75 57.12L1 55.111v72.373m183 14.584c-10.589 2.765-17.445 6.49-24.974 13.568-19.621 18.449-24.045 45.294-11.433 69.385 12.172 23.25 43.014 35.543 67.788 27.02 14.721-5.065 27.637-15.931 33.435-28.129 11.248-23.663 6.991-49.053-11.31-67.458-14.173-14.254-33.799-19.531-53.506-14.386m22.787 50.636-14.704 14.704-6.944-6.704c-7.633-7.369-9.87-8.064-13.684-4.249-4.088 4.088-3.255 6.011 7.232 16.685 13.699 13.943 12.279 14.218 33.073-6.39 9.019-8.937 17.036-17.462 17.816-18.944 2.394-4.55-.963-9.806-6.264-9.806-1.011 0-8.358 6.538-16.525 14.704" fill="#1976D2" fill-rule="evenodd"/></svg>