<?xml version="1.0" standalone="no"?><svg xmlns="http://www.w3.org/2000/svg" viewBox="0 0 1440 320"><path fill="#2c9c6a" fill-opacity="1" d="M0,32L26.7,80C53.3,128,107,224,160,229.3C213.3,235,267,149,320,122.7C373.3,96,427,128,480,122.7C533.3,117,587,75,640,101.3C693.3,128,747,224,800,261.3C853.3,299,907,277,960,261.3C1013.3,245,1067,235,1120,213.3C1173.3,192,1227,160,1280,144C1333.3,128,1387,128,1413,128L1440,128L1440,320L1413.3,320C1386.7,320,1333,320,1280,320C1226.7,320,1173,320,1120,320C1066.7,320,1013,320,960,320C906.7,320,853,320,800,320C746.7,320,693,320,640,320C586.7,320,533,320,480,320C426.7,320,373,320,320,320C266.7,320,213,320,160,320C106.7,320,53,320,27,320L0,320Z"></path></svg>